<?xml version="1.0" standalone="no"?><!DOCTYPE svg PUBLIC "-//W3C//DTD SVG 1.1//EN" "http://www.w3.org/Graphics/SVG/1.1/DTD/svg11.dtd"><svg t="1596097024101" class="icon" viewBox="0 0 1024 1024" version="1.1" xmlns="http://www.w3.org/2000/svg" p-id="2022" xmlns:xlink="http://www.w3.org/1999/xlink" width="32" height="32"><defs><style type="text/css"></style></defs><path d="M331.435 462.938c-13.931-14.25-36.852-14.543-51.01-0.586-14.277 13.958-14.57 36.812-0.586 51.063l149.712 153.188c6.699 6.887 15.876 10.789 25.505 10.881h0.293a36.209 36.209 0 0 0 25.398-10.428l285.507-282.031c14.171-14.011 14.345-36.865 0.293-51.063-13.931-14.091-36.785-14.331-51.063-0.293L455.829 590.197 331.435 462.938z" p-id="2023"></path><path d="M916.341 152.833L523.753 17.543a36.623 36.623 0 0 0-23.507 0l-392.587 135.29c-14.57 5.034-24.319 18.752-24.319 34.148v417.572C94.313 849.6 482.666 999.752 499.193 1006.037c4.103 1.572 8.458 2.357 12.8 2.357s8.697-0.785 12.813-2.357c16.515-6.285 404.8-156.438 415.854-403.096v-415.96c0-15.397-9.749-29.114-24.319-34.148zM868.515 601.33c-7.951 176.402-292.753 305.326-356.694 332.082-108.106-43.951-349.276-174.271-356.322-330.471V212.712L511.993 89.876l356.521 122.836V601.33h0.001z" p-id="2024"></path></svg>