<svg t="1585548090329" class="icon" viewBox="0 0 1024 1024" version="1.1" xmlns="http://www.w3.org/2000/svg" p-id="5487" width="128" height="128"><path d="M391.803822 681.305343s-140.656038 0-176.458794-63.934563c0 0 33.245773-63.934563 33.245773-202.032619-2.557983-135.541073 7.671948-299.212955 109.967248-363.147518S499.213087 1.044993 527.343895 1.044993c28.131808 0 69.049528 10.22993 81.836441 28.130808 0 0 53.704633-10.22993 86.950405 12.786912 33.245773 25.573825 97.179336 58.819598 97.179336 370.819465 0 0 0 161.113899 33.246773 202.032619 0 0-17.901878 66.491545-186.688724 66.491546 0 0-12.785913 40.91772 28.131808 71.60651 43.474703 30.68779 196.917654 84.393423 232.720409 112.524231 33.245773 28.130808 86.951406 56.261615 86.951405 158.556916H36.328252s-5.113965-99.737318 94.623353-158.556916c25.573825-15.344895 191.802689-76.721476 232.720409-112.524231 35.803755-35.803755 28.131808-71.606511 28.131808-71.60651z" p-id="5488"></path></svg>