<svg t="1585882157381" class="icon" viewBox="0 0 1024 1024" version="1.1" xmlns="http://www.w3.org/2000/svg" p-id="5202" width="128" height="128"><path d="M612.889946 652.088572c-18.813251-3.00545-19.251244-54.724369-19.251244-54.724369s55.282344-54.724369 67.342514-128.327714c32.401281 0 52.43948-78.228689 20.011593-105.779162 1.369241-28.930913 41.667707-227.430826-162.397323-227.430826S354.827897 334.326415 356.172578 363.28598c-32.403327 27.547403-12.392758 105.779162 20.008523 105.779162 12.032539 73.602322 67.345584 128.327714 67.345584 128.327714s-0.437993 51.718919-19.254314 54.722322c-60.589433 9.652847-286.899004 109.449761-286.899004 218.895429l381.221095 0 381.221095 0C899.816581 761.563916 673.50701 661.767002 612.889946 652.088572z" p-id="5203"></path></svg>