<?xml version="1.0" standalone="no"?><!DOCTYPE svg PUBLIC "-//W3C//DTD SVG 1.1//EN" "http://www.w3.org/Graphics/SVG/1.1/DTD/svg11.dtd"><svg t="1599013153091" class="icon" viewBox="0 0 1024 1024" version="1.1" xmlns="http://www.w3.org/2000/svg" p-id="2391" xmlns:xlink="http://www.w3.org/1999/xlink" width="32" height="32"><defs><style type="text/css"></style></defs><path d="M518.272 765.461333L143.530667 595.093333c-16-4.565333-35.925333-15.808-61.333334-30.144A33.450667 33.450667 0 0 1 64 535.850667c-0.213333-12.288 6.336-23.68 17.109333-29.76a34.005333 34.005333 0 0 1 34.517334 0.725333c11.221333 6.293333 24.661333 13.013333 35.136 17.941333l367.509333 167.104 350.293333-159.189333 30.656-15.210667 23.445334-11.52a34.005333 34.005333 0 0 1 34.346666 1.429334c10.304 6.634667 16.170667 18.346667 15.274667 30.506666a33.493333 33.493333 0 0 1-19.584 28.010667l-23.36 11.52c-11.093333 5.610667-22.293333 11.050667-33.557333 16.341333v0.064l-377.514667 171.648z" p-id="2392"></path><path d="M517.717333 960.832L141.76 788.608c-12.245333-4.053333-30.549333-12.906667-60.650667-30.08a33.792 33.792 0 1 1 33.472-58.752c11.626667 6.613333 25.685333 13.568 36.373334 18.645333l366.762666 168.085334 350.72-160.64 30.72-15.36 23.445334-11.605334a33.834667 33.834667 0 0 1 49.706666 32.213334 33.770667 33.770667 0 0 1-19.626666 28.245333l-23.381334 11.690667c-11.136 5.653333-22.336 11.136-33.621333 16.469333v0.085333l-377.962667 173.226667z m-0.682666-402.133333c-19.733333 0-37.12-6.890667-52.949334-14.314667L108.437333 385.557333a75.306667 75.306667 0 0 1-40.64-65.344c-1.216-29.717333 12.629333-57.557333 36.16-72.618666l358.784-188.437334c45.568-22.698667 74.112-21.546667 112.042667 0.810667l354.858667 186.133333c24.661333 13.525333 39.082667 41.28 38.058666 72.896-1.024 30.08-16.170667 55.530667-39.552 66.346667l-356.757333 159.317333c-19.605333 8.512-36.096 14.037333-54.357333 14.037334z m2.837333-447.850667c-6.293333 0-14.677333 2.709333-26.368 8.533333l-355.584 186.666667a21.546667 21.546667 0 0 0-2.56 11.477333c0.106667 3.968 1.472 6.741333 2.688 7.36l354.176 158.144c25.813333 12.032 25.962667 11.093333 51.925333-0.213333l355.925334-158.933333c1.088-2.517333 0.618667-15.210667-2.773334-18.389334L541.930667 119.04c-12.586667-7.381333-18.304-8.192-22.037334-8.192z" p-id="2393"></path></svg>