<svg t="1584586334163" class="icon" viewBox="0 0 1024 1024" version="1.1" xmlns="http://www.w3.org/2000/svg" p-id="7354" width="128" height="128"><path d="M872.2944 239.7184c0-47.4624-50.7904-47.4624-50.7904-47.4624H202.496s-50.7904 0-50.7904 47.4624v47.4624h722.5856v-47.4624h-1.9968z m-154.3168-138.6496H306.0224s-50.7904 0-50.7904 47.4112h515.5328c-2.048-47.4112-52.736-47.4112-52.736-47.4112h-0.0512z m257.792 189.5936l-30.4128-30.9248v84.48H78.6944v-84.48l-30.4128 30.9248C17.7664 321.536-4.5568 329.7792 7.68 395.6736c12.1344 65.8944 71.0144 424.3456 79.104 473.7536 10.1376 53.504 62.8736 53.504 62.8736 53.504h722.5856s52.736 0 62.8736-53.504c8.0896-49.408 67.0208-407.8592 81.152-473.7536 12.288-65.8944-10.0352-74.1376-40.4992-105.0112z m-257.7408 246.4256s0 47.4624-50.7904 47.4624H356.7616c-50.7904 0-50.7904-47.4624-50.7904-47.4624V444.0576h73.1136v74.752h267.8784v-74.752h73.1136l-2.048 93.0304z m0 0" p-id="7355"></path></svg>