<?xml version="1.0" encoding="utf-8"?>
<!-- Generator: Adobe Illustrator 23.0.0, SVG Export Plug-In . SVG Version: 6.00 Build 0)  -->
<svg version="1.1" id="图层_1" xmlns="http://www.w3.org/2000/svg" xmlns:xlink="http://www.w3.org/1999/xlink" x="0px" y="0px"
	 viewBox="0 0 200 200" style="enable-background:new 0 0 200 200;" xml:space="preserve">
<style type="text/css">
	.st0{fill:url(#Shape_1_);}
	.st1{fill:url(#SVGID_1_);}
	.st2{fill:url(#SVGID_2_);}
	.st3{fill-rule:evenodd;clip-rule:evenodd;fill:url(#Combined-Shape_1_);}
</style>
<title>Group 28 Copy 5</title>
<desc>Created with Sketch.</desc>
<g id="Group-28-Copy-5" transform="translate(20.000000, 20.000000)">
	<g id="Group-27-Copy-3">
		<g id="Group-25">
			
				<linearGradient id="Shape_1_" gradientUnits="userSpaceOnUse" x1="-634.4196" y1="528.9627" x2="-633.9586" y2="528.584" gradientTransform="matrix(147.7263 0 0 -198.7057 93758.75 105144.3828)">
				<stop  offset="0" style="stop-color:#2E57EF"/>
				<stop  offset="1" style="stop-color:#31A7FF"/>
			</linearGradient>
			<path id="Shape" class="st0" d="M71.6-15.8l-87.4,87.3c-4.7,4.7-4.7,12.3,0,17l87.4,87.3c4.7,4.7,12.3,4.7,17,0l36.6-36.6
				c4.2-4.2,4.2-11,0-15.2c-4.2-4.2-11-4.2-15.2,0l-27.8,27.8c-1.2,1.2-2.9,1.2-4.1,0L8.3,82c-1.2-1.2-1.2-2.9,0-4.1L78.1,8.1
				C79.3,7,81,7,82.2,8.1L110,35.9c4.2,4.2,11,4.2,15.2,0c4.2-4.2,4.2-11,0-15.2L88.6-15.9C83.9-20.5,76.3-20.5,71.6-15.8z"/>
			
				<linearGradient id="SVGID_1_" gradientUnits="userSpaceOnUse" x1="-634.2171" y1="529.2585" x2="-634.3731" y2="528.174" gradientTransform="matrix(147.7263 0 0 -198.7057 93758.75 105144.3828)">
				<stop  offset="0" style="stop-color:#2C96FF"/>
				<stop  offset="0.3805" style="stop-color:#156FFF"/>
				<stop  offset="1" style="stop-color:#072FEF"/>
			</linearGradient>
			<path class="st1" d="M71.6-15.8l-87.4,87.3c-4.7,4.7-4.7,12.3,0,17l87.4,87.3c4.7,4.7,12.3,4.7,17,0l36.6-36.6
				c4.2-4.2,4.2-11,0-15.2c-4.2-4.2-11-4.2-15.2,0l-27.8,27.8c-1.2,1.2-2.9,1.2-4.1,0L8.3,82c-1.2-1.2-1.2-2.9,0-4.1L78.1,8.1
				c2.9-2.5,7.7-7.6,14.6-8.8c5.2-0.9,10.9,1.1,17,5.8C105.6,1.1,98.6-6,88.6-15.9C83.9-20.5,76.3-20.5,71.6-15.8z"/>
			
				<linearGradient id="SVGID_2_" gradientUnits="userSpaceOnUse" x1="-625.7349" y1="526.6276" x2="-626.2645" y2="525.324" gradientTransform="matrix(49.2049 0 0 -77.4363 30953.1875 40811.2461)">
				<stop  offset="0" style="stop-color:#F9C778"/>
				<stop  offset="0.4147" style="stop-color:#FF7F0B"/>
				<stop  offset="1" style="stop-color:#FFAC06"/>
			</linearGradient>
			<path class="st2" d="M133.7,115.9c4.2,4.2,11,4.2,15.2,0l27-27c4.7-4.7,4.7-12.3,0-17l-27.3-27.2c-4.2-4.2-11-4.2-15.3,0
				c-4.2,4.2-4.2,11,0,15.2l18.4,18.4c1.2,1.2,1.2,2.9,0,4.1l-18.2,18.2C129.5,104.8,129.5,111.6,133.7,115.9z"/>
		</g>
		
			<linearGradient id="Combined-Shape_1_" gradientUnits="userSpaceOnUse" x1="-625.1732" y1="523.9491" x2="-625.55" y2="522.4427" gradientTransform="matrix(47.2 0 0 -47.162 29598.7188 24750.877)">
			<stop  offset="0" style="stop-color:#FFEB88"/>
			<stop  offset="0.5126" style="stop-color:#FFB640"/>
			<stop  offset="1" style="stop-color:#FC6317"/>
		</linearGradient>
		<ellipse id="Combined-Shape" class="st3" cx="80.5" cy="80.4" rx="23.6" ry="23.6"/>
	</g>
</g>
</svg>
